<svg width="100" height="112" viewBox="0 0 100 112" fill="none" xmlns="http://www.w3.org/2000/svg">
<path d="M17 36.5L49.5 16V38.5L37 46V63.6791L17 76V36.5Z" fill="#F41B61"/>
<path d="M49.5 38.5L49.5 16.0001L85.618 38.0001V48.5001L95.118 54.5001L95 66L49.5 38.5Z" fill="#BD1574"/>
<path d="M49.4987 56.0001L82.9993 76.5L49.4992 96L17 76L49.4987 56.0001Z" fill="#75118A"/>
<path d="M95 83L49.5 112L4 84V28L49 0L95 28V54.5L85.5 48.5V38L49.5 16L17 36.5V76L49.5 96L83 76.5L49.5 56L37 63.6682V46L49.5 38.5L95 66V83Z" fill="#281343"/>
</svg>
