<svg width="133" height="133" viewBox="0 0 133 133" fill="none" xmlns="http://www.w3.org/2000/svg">
<path fill-rule="evenodd" clip-rule="evenodd" d="M66.5007 13.2998C59.4459 13.2998 52.6801 16.1023 47.6916 21.0908C42.7031 26.0792 39.9007 32.845 39.9007 39.8998V46.5498H33.2507C31.6135 46.5497 30.0339 47.1534 28.8143 48.2455C27.5946 49.3375 26.8206 50.8411 26.6406 52.4683L19.9906 112.318C19.8877 113.248 19.982 114.188 20.2673 115.079C20.5526 115.969 21.0224 116.789 21.6462 117.486C22.27 118.183 23.0337 118.74 23.8874 119.121C24.7411 119.503 25.6656 119.7 26.6007 119.7H106.401C107.336 119.7 108.26 119.503 109.114 119.121C109.968 118.74 110.731 118.183 111.355 117.486C111.979 116.789 112.449 115.969 112.734 115.079C113.019 114.188 113.114 113.248 113.011 112.318L106.361 52.4683C106.181 50.8411 105.407 49.3375 104.187 48.2455C102.967 47.1534 101.388 46.5497 99.7507 46.5498H93.1007V39.8998C93.1007 32.845 90.2982 26.0792 85.3097 21.0908C80.3212 16.1023 73.5554 13.2998 66.5007 13.2998ZM79.8007 46.5498V39.8998C79.8007 36.3724 78.3994 32.9895 75.9052 30.4953C73.4109 28.001 70.028 26.5998 66.5007 26.5998C62.9733 26.5998 59.5904 28.001 57.0961 30.4953C54.6019 32.9895 53.2007 36.3724 53.2007 39.8998V46.5498H79.8007ZM39.9007 66.4998C39.9007 64.7361 40.6013 63.0446 41.8484 61.7975C43.0955 60.5504 44.787 59.8498 46.5507 59.8498C48.3143 59.8498 50.0058 60.5504 51.2529 61.7975C52.5 63.0446 53.2007 64.7361 53.2007 66.4998C53.2007 68.2635 52.5 69.9549 51.2529 71.202C50.0058 72.4491 48.3143 73.1498 46.5507 73.1498C44.787 73.1498 43.0955 72.4491 41.8484 71.202C40.6013 69.9549 39.9007 68.2635 39.9007 66.4998ZM86.4507 59.8498C84.687 59.8498 82.9955 60.5504 81.7484 61.7975C80.5013 63.0446 79.8007 64.7361 79.8007 66.4998C79.8007 68.2635 80.5013 69.9549 81.7484 71.202C82.9955 72.4491 84.687 73.1498 86.4507 73.1498C88.2144 73.1498 89.9058 72.4491 91.1529 71.202C92.4 69.9549 93.1007 68.2635 93.1007 66.4998C93.1007 64.7361 92.4 63.0446 91.1529 61.7975C89.9058 60.5504 88.2144 59.8498 86.4507 59.8498Z" fill="white"/>
</svg>
